<svg width="25" height="25" viewBox="0 0 25 25" fill="none" xmlns="http://www.w3.org/2000/svg">
<g clip-path="url(#clip0_1515_447)">
<path d="M12.5 3.25684C10.72 3.25684 8.97991 3.78468 7.49987 4.77361C6.01983 5.76254 4.86628 7.16815 4.18509 8.81269C3.5039 10.4572 3.32567 12.2668 3.67294 14.0127C4.0202 15.7585 4.87737 17.3621 6.13604 18.6208C7.39472 19.8795 8.99836 20.7366 10.7442 21.0839C12.49 21.4312 14.2996 21.2529 15.9442 20.5718C17.5887 19.8906 18.9943 18.737 19.9832 17.257C20.9722 15.7769 21.5 14.0369 21.5 12.2568C21.4974 9.87068 20.5484 7.58299 18.8611 5.89573C17.1738 4.20846 14.8862 3.25942 12.5 3.25684V3.25684ZM14.9165 8.50684H10.0835C10.7201 7.25004 11.5339 6.09121 12.5 5.06584C13.4665 6.09092 14.2803 7.2498 14.9165 8.50684V8.50684ZM15.5165 10.0068C15.747 10.7348 15.8673 11.4932 15.8735 12.2568C15.8673 13.0204 15.747 13.7788 15.5165 14.5068H9.482C9.25149 13.7788 9.13116 13.0204 9.125 12.2568C9.13116 11.4932 9.25149 10.7348 9.482 10.0068H15.5165ZM10.55 5.02384C9.68575 6.08117 8.97244 7.25336 8.4305 8.50684H6.01475C7.00915 6.79416 8.63875 5.54265 10.55 5.02384V5.02384ZM5 12.2568C4.99994 11.4936 5.11653 10.7348 5.34575 10.0068H7.925C7.73057 10.7412 7.62977 11.4972 7.625 12.2568C7.62977 13.0165 7.73057 13.7725 7.925 14.5068H5.34575C5.11653 13.7788 4.99994 13.0201 5 12.2568V12.2568ZM6.01475 16.0068H8.4305C8.97244 17.2603 9.68575 18.4325 10.55 19.4898C8.63875 18.971 7.00915 17.7195 6.01475 16.0068V16.0068ZM10.0835 16.0068H14.9165C14.2799 17.2636 13.4661 18.4225 12.5 19.4478C11.5335 18.4228 10.7197 17.2639 10.0835 16.0068V16.0068ZM14.4538 19.4898C15.3167 18.4323 16.0287 17.2601 16.5695 16.0068H18.9853C17.9917 17.7187 16.3636 18.9701 14.4538 19.4898V19.4898ZM20 12.2568C20.0001 13.0201 19.8835 13.7788 19.6543 14.5068H17.075C17.2694 13.7725 17.3702 13.0165 17.375 12.2568C17.3702 11.4972 17.2694 10.7412 17.075 10.0068H19.6528C19.8825 10.7348 19.9996 11.4935 20 12.2568V12.2568ZM16.5695 8.50684C16.0287 7.25358 15.3167 6.0814 14.4538 5.02384C16.3636 5.54353 17.9917 6.79494 18.9853 8.50684H16.5695Z" fill="white"/>
</g>
<defs>
<clipPath id="clip0_1515_447">
<rect width="18" height="18" fill="white" transform="translate(3.5 3.25684)"/>
</clipPath>
</defs>
</svg>
