<svg width="59" height="17" viewBox="0 0 59 17" fill="none" xmlns="http://www.w3.org/2000/svg">
<rect y="0.828125" width="59" height="16" rx="2" fill="#206ECF"/>
<path d="M11.84 6.26812L10.192 11.8281H9.16L7.992 7.62012L6.752 11.8281L5.728 11.8361L4.152 6.26812H5.12L6.272 10.7961L7.52 6.26812H8.544L9.704 10.7721L10.864 6.26812H11.84ZM16.6322 9.51612C16.6322 9.68146 16.6215 9.83079 16.6002 9.96412H13.2322C13.2589 10.3161 13.3895 10.5988 13.6242 10.8121C13.8589 11.0255 14.1469 11.1321 14.4882 11.1321C14.9789 11.1321 15.3255 10.9268 15.5282 10.5161H16.5122C16.3789 10.9215 16.1362 11.2548 15.7842 11.5161C15.4375 11.7721 15.0055 11.9001 14.4882 11.9001C14.0669 11.9001 13.6882 11.8068 13.3522 11.6201C13.0215 11.4281 12.7602 11.1615 12.5682 10.8201C12.3815 10.4735 12.2882 10.0735 12.2882 9.62012C12.2882 9.16679 12.3789 8.76946 12.5602 8.42812C12.7469 8.08146 13.0055 7.81479 13.3362 7.62812C13.6722 7.44146 14.0562 7.34812 14.4882 7.34812C14.9042 7.34812 15.2749 7.43879 15.6002 7.62012C15.9255 7.80146 16.1789 8.05746 16.3602 8.38812C16.5415 8.71346 16.6322 9.08946 16.6322 9.51612ZM15.6802 9.22812C15.6749 8.89212 15.5549 8.62279 15.3202 8.42012C15.0855 8.21746 14.7949 8.11612 14.4482 8.11612C14.1335 8.11612 13.8642 8.21746 13.6402 8.42012C13.4162 8.61746 13.2829 8.88679 13.2402 9.22812H15.6802ZM17.6737 6.26812H18.6657L17.8257 8.17212H17.1857L17.6737 6.26812ZM20.3792 8.06012C20.5125 7.83612 20.6885 7.66279 20.9072 7.54012C21.1312 7.41212 21.3952 7.34812 21.6992 7.34812V8.29212H21.4672C21.1099 8.29212 20.8379 8.38279 20.6512 8.56412C20.4699 8.74546 20.3792 9.06012 20.3792 9.50812V11.8281H19.4672V7.42013H20.3792V8.06012ZM26.5775 9.51612C26.5775 9.68146 26.5668 9.83079 26.5455 9.96412H23.1775C23.2042 10.3161 23.3348 10.5988 23.5695 10.8121C23.8042 11.0255 24.0922 11.1321 24.4335 11.1321C24.9242 11.1321 25.2708 10.9268 25.4735 10.5161H26.4575C26.3242 10.9215 26.0815 11.2548 25.7295 11.5161C25.3828 11.7721 24.9508 11.9001 24.4335 11.9001C24.0122 11.9001 23.6335 11.8068 23.2975 11.6201C22.9668 11.4281 22.7055 11.1615 22.5135 10.8201C22.3268 10.4735 22.2335 10.0735 22.2335 9.62012C22.2335 9.16679 22.3242 8.76946 22.5055 8.42812C22.6922 8.08146 22.9508 7.81479 23.2815 7.62812C23.6175 7.44146 24.0015 7.34812 24.4335 7.34812C24.8495 7.34812 25.2202 7.43879 25.5455 7.62012C25.8708 7.80146 26.1242 8.05746 26.3055 8.38812C26.4868 8.71346 26.5775 9.08946 26.5775 9.51612ZM25.6255 9.22812C25.6202 8.89212 25.5002 8.62279 25.2655 8.42012C25.0308 8.21746 24.7402 8.11612 24.3935 8.11612C24.0788 8.11612 23.8095 8.21746 23.5855 8.42012C23.3615 8.61746 23.2282 8.88679 23.1855 9.22812H25.6255ZM31.8331 7.34812C32.1691 7.34812 32.4678 7.42012 32.7291 7.56412C32.9958 7.70812 33.2038 7.92146 33.3531 8.20412C33.5078 8.48679 33.5851 8.82812 33.5851 9.22812V11.8281H32.6811V9.36412C32.6811 8.96946 32.5825 8.66812 32.3851 8.46012C32.1878 8.24679 31.9185 8.14012 31.5771 8.14012C31.2358 8.14012 30.9638 8.24679 30.7611 8.46012C30.5638 8.66812 30.4651 8.96946 30.4651 9.36412V11.8281H29.5531V5.90812H30.4651V7.93212C30.6198 7.74546 30.8145 7.60146 31.0491 7.50012C31.2891 7.39879 31.5505 7.34812 31.8331 7.34812ZM35.2124 6.83612C35.0471 6.83612 34.9084 6.78012 34.7964 6.66812C34.6844 6.55612 34.6284 6.41746 34.6284 6.25212C34.6284 6.08679 34.6844 5.94812 34.7964 5.83612C34.9084 5.72412 35.0471 5.66812 35.2124 5.66812C35.3724 5.66812 35.5084 5.72412 35.6204 5.83612C35.7324 5.94812 35.7884 6.08679 35.7884 6.25212C35.7884 6.41746 35.7324 6.55612 35.6204 6.66812C35.5084 6.78012 35.3724 6.83612 35.2124 6.83612ZM35.6604 7.42013V11.8281H34.7484V7.42013H35.6604ZM37.7698 8.06012C37.9031 7.83612 38.0791 7.66279 38.2978 7.54012C38.5218 7.41212 38.7858 7.34812 39.0898 7.34812V8.29212H38.8578C38.5005 8.29212 38.2285 8.38279 38.0418 8.56412C37.8605 8.74546 37.7698 9.06012 37.7698 9.50812V11.8281H36.8578V7.42013H37.7698V8.06012ZM40.3921 6.83612C40.2268 6.83612 40.0881 6.78012 39.9761 6.66812C39.8641 6.55612 39.8081 6.41746 39.8081 6.25212C39.8081 6.08679 39.8641 5.94812 39.9761 5.83612C40.0881 5.72412 40.2268 5.66812 40.3921 5.66812C40.5521 5.66812 40.6881 5.72412 40.8001 5.83612C40.9121 5.94812 40.9681 6.08679 40.9681 6.25212C40.9681 6.41746 40.9121 6.55612 40.8001 6.66812C40.6881 6.78012 40.5521 6.83612 40.3921 6.83612ZM40.8401 7.42013V11.8281H39.9281V7.42013H40.8401ZM44.2615 7.34812C44.6082 7.34812 44.9175 7.42012 45.1895 7.56412C45.4668 7.70812 45.6828 7.92146 45.8375 8.20412C45.9922 8.48679 46.0695 8.82812 46.0695 9.22812V11.8281H45.1655V9.36412C45.1655 8.96946 45.0668 8.66812 44.8695 8.46012C44.6722 8.24679 44.4028 8.14012 44.0615 8.14012C43.7202 8.14012 43.4482 8.24679 43.2455 8.46012C43.0482 8.66812 42.9495 8.96946 42.9495 9.36412V11.8281H42.0375V7.42013H42.9495V7.92412C43.0988 7.74279 43.2882 7.60146 43.5175 7.50012C43.7522 7.39879 44.0002 7.34812 44.2615 7.34812ZM49.0088 7.34812C49.3501 7.34812 49.6515 7.41746 49.9128 7.55612C50.1795 7.68946 50.3875 7.85746 50.5368 8.06012V7.42013H51.4568V11.9001C51.4568 12.3055 51.3715 12.6655 51.2008 12.9801C51.0301 13.3001 50.7821 13.5508 50.4568 13.7321C50.1368 13.9135 49.7528 14.0041 49.3048 14.0041C48.7075 14.0041 48.2115 13.8628 47.8168 13.5801C47.4221 13.3028 47.1981 12.9241 47.1448 12.4441H48.0488C48.1181 12.6735 48.2648 12.8575 48.4888 12.9961C48.7181 13.1401 48.9901 13.2121 49.3048 13.2121C49.6728 13.2121 49.9688 13.1001 50.1928 12.8761C50.4221 12.6521 50.5368 12.3268 50.5368 11.9001V11.1641C50.3821 11.3721 50.1715 11.5481 49.9048 11.6921C49.6435 11.8308 49.3448 11.9001 49.0088 11.9001C48.6248 11.9001 48.2728 11.8041 47.9528 11.6121C47.6381 11.4148 47.3875 11.1428 47.2008 10.7961C47.0195 10.4441 46.9288 10.0468 46.9288 9.60412C46.9288 9.16146 47.0195 8.76946 47.2008 8.42812C47.3875 8.08679 47.6381 7.82279 47.9528 7.63612C48.2728 7.44412 48.6248 7.34812 49.0088 7.34812ZM50.5368 9.62012C50.5368 9.31612 50.4728 9.05212 50.3448 8.82812C50.2221 8.60412 50.0595 8.43346 49.8568 8.31612C49.6541 8.19879 49.4355 8.14012 49.2008 8.14012C48.9661 8.14012 48.7475 8.19879 48.5448 8.31612C48.3421 8.42812 48.1768 8.59612 48.0488 8.82012C47.9261 9.03879 47.8648 9.30012 47.8648 9.60412C47.8648 9.90812 47.9261 10.1748 48.0488 10.4041C48.1768 10.6335 48.3421 10.8095 48.5448 10.9321C48.7528 11.0495 48.9715 11.1081 49.2008 11.1081C49.4355 11.1081 49.6541 11.0495 49.8568 10.9321C50.0595 10.8148 50.2221 10.6441 50.3448 10.4201C50.4728 10.1908 50.5368 9.92412 50.5368 9.62012ZM53.7987 6.26812L53.6947 10.1481H52.9347L52.8307 6.26812H53.7987ZM53.3427 11.8841C53.1774 11.8841 53.0387 11.8281 52.9267 11.7161C52.8147 11.6041 52.7587 11.4655 52.7587 11.3001C52.7587 11.1348 52.8147 10.9961 52.9267 10.8841C53.0387 10.7721 53.1774 10.7161 53.3427 10.7161C53.5027 10.7161 53.6387 10.7721 53.7507 10.8841C53.8627 10.9961 53.9187 11.1348 53.9187 11.3001C53.9187 11.4655 53.8627 11.6041 53.7507 11.7161C53.6387 11.8281 53.5027 11.8841 53.3427 11.8841Z" fill="white"/>
</svg>
